<svg width="30" height="24" viewBox="0 0 30 24" fill="none" xmlns="http://www.w3.org/2000/svg">
<mask id="mask0_460_156" style="mask-type:alpha" maskUnits="userSpaceOnUse" x="0" y="0" width="30" height="24">
<rect width="30" height="24" rx="3" fill="#41479B"/>
</mask>
<g mask="url(#mask0_460_156)">
<rect x="-0.75" y="-2.25" width="30.75" height="28.5" fill="#41479B"/>
<g clip-path="url(#clip0_460_156)">
<path d="M30.7495 20.8197V19.2897L25.8895 16.0497H30.7495V14.4297H17.5195V27.7497H19.1395V17.6697L29.6695 24.5997C30.0295 24.0597 30.2995 23.3397 30.4795 22.7097" fill="#F5F5F5"/>
<path d="M30.2995 0.66C30.1195 0.21 29.9395 -0.15 29.6695 -0.51L19.1395 6.42V-3.75H17.5195V9.48H30.7495V7.86H25.8895L30.7495 4.62V3.18C30.7495 2.91 30.7495 2.64 30.6595 2.37" fill="#F5F5F5"/>
<path d="M17.52 -3.75H12.48V9.48H-0.75V14.52H12.48V27.75H17.52V14.52H30.75V9.48H17.52V-3.75Z" fill="#FF4B55"/>
<path d="M20.4004 16.1396L30.4804 22.7096C30.6604 22.1696 30.7504 21.5396 30.7504 20.9096L23.4604 16.2296H20.4004V16.1396Z" fill="#FF4B55"/>
<path d="M22.2006 7.86016L30.7506 2.37016C30.6606 1.74016 30.5706 1.20016 30.3006 0.660156L19.1406 7.86016H22.2006Z" fill="#FF4B55"/>
<path d="M-0.75 20.8197V19.2897L4.11 16.0497H-0.75V14.4297H12.48V27.7497H10.86V17.6697L0.33 24.5997C-0.03 24.0597 -0.3 23.3397 -0.48 22.7097" fill="#F5F5F5"/>
<path d="M-0.3 0.66C-0.12 0.21 0.06 -0.15 0.33 -0.51L10.86 6.42V-3.75H12.48V9.48H-0.75V7.86H4.11L-0.75 4.62V3.09C-0.75 2.82 -0.75 2.55 -0.66 2.28" fill="#F5F5F5"/>
<path d="M9.6 16.1396L-0.48 22.7096C-0.66 22.0796 -0.75 21.4496 -0.75 20.8196L6.54 16.1396H9.6Z" fill="#FF4B55"/>
<path d="M7.79984 7.86016L-0.660156 2.37016C-0.570156 1.74016 -0.480156 1.20016 -0.210156 0.660156L10.9498 7.86016H7.79984Z" fill="#FF4B55"/>
</g>
</g>
<defs>
<clipPath id="clip0_460_156">
<rect width="31.5" height="31.5" fill="white" transform="translate(-0.75 -3.75)"/>
</clipPath>
</defs>
</svg>
