<svg width="16" height="13" viewBox="0 0 16 13" fill="none" xmlns="http://www.w3.org/2000/svg">
<path d="M8.00051 2.70361L2.29419 7.40787C2.29419 7.41451 2.29252 7.42428 2.28919 7.43759C2.28592 7.4508 2.28418 7.46039 2.28418 7.46721V12.2308C2.28418 12.4028 2.34706 12.5518 2.47279 12.6773C2.59848 12.8029 2.74732 12.8661 2.91935 12.8661H6.7301V9.05515H9.27096V12.8662H13.0817C13.2537 12.8662 13.4027 12.8032 13.5282 12.6773C13.654 12.5519 13.7171 12.4028 13.7171 12.2308V7.46721C13.7171 7.44079 13.7134 7.42084 13.707 7.40787L8.00051 2.70361Z" fill="#9AA9F1"/>
<path d="M15.8896 6.33602L13.7163 4.52982V0.480727C13.7163 0.388161 13.6866 0.312037 13.6269 0.252458C13.5676 0.192949 13.4915 0.163194 13.3987 0.163194H11.4933C11.4007 0.163194 11.3246 0.192949 11.265 0.252458C11.2055 0.312037 11.1758 0.388196 11.1758 0.480727V2.41592L8.75431 0.391324C8.54283 0.219297 8.29138 0.133301 8.00023 0.133301C7.70911 0.133301 7.45769 0.219297 7.246 0.391324L0.110278 6.33602C0.0441299 6.38885 0.00787516 6.45997 0.0011317 6.5493C-0.005577 6.63857 0.0175385 6.71654 0.0705476 6.78265L0.685836 7.51706C0.738845 7.57657 0.808226 7.61296 0.894257 7.62627C0.973684 7.63295 1.05311 7.60973 1.13254 7.55682L8.00002 1.83039L14.8676 7.55679C14.9206 7.60295 14.99 7.626 15.076 7.626H15.1058C15.1917 7.61293 15.2609 7.57629 15.3142 7.51692L15.9296 6.78261C15.9825 6.71636 16.0057 6.63853 15.9988 6.54917C15.992 6.46008 15.9556 6.38896 15.8896 6.33602Z" fill="#9AA9F1"/>
</svg>
