<svg width="32" height="28" viewBox="0 0 32 28" fill="none" xmlns="http://www.w3.org/2000/svg">
<path d="M31.4707 8.11767L16.4707 0.117667C16.3259 0.0404113 16.1642 0 16.0001 0C15.8359 0 15.6743 0.0404113 15.5295 0.117667L0.529453 8.11767C0.369521 8.20295 0.235776 8.33011 0.142519 8.48553C0.0492622 8.64095 0 8.81879 0 9.00004C0 9.18129 0.0492622 9.35914 0.142519 9.51456C0.235776 9.66998 0.369521 9.79713 0.529453 9.88242L3.50008 11.4667V17.6818C3.50059 18.1141 3.64061 18.5346 3.89933 18.8809C4.89008 20.1992 8.69008 24.5 16.0001 24.5C18.234 24.5205 20.4477 24.0753 22.5001 23.193V27C22.5001 27.2653 22.6054 27.5196 22.793 27.7071C22.9805 27.8947 23.2349 28 23.5001 28C23.7653 28 24.0196 27.8947 24.2072 27.7071C24.3947 27.5196 24.5001 27.2653 24.5001 27V22.1334C25.8829 21.2704 27.1019 20.1693 28.1007 18.881C28.3595 18.5347 28.4996 18.1141 28.5001 17.6818V11.4668L31.4707 9.88242C31.6306 9.79713 31.7644 9.66998 31.8576 9.51456C31.9509 9.35914 32.0002 9.18129 32.0002 9.00004C32.0002 8.81879 31.9509 8.64095 31.8576 8.48553C31.7644 8.33011 31.6306 8.20295 31.4707 8.11767ZM16.0001 22.5C9.61683 22.5 6.34808 18.8103 5.50008 17.6818V12.5333L15.5295 17.8824C15.6743 17.9597 15.8359 18.0001 16.0001 18.0001C16.1642 18.0001 16.3259 17.9597 16.4707 17.8824L22.5001 14.6667V20.9808C20.8592 21.8334 18.7117 22.5 16.0001 22.5ZM26.502 17.6794C25.9227 18.4326 25.25 19.1091 24.5001 19.6925V13.6L26.5005 12.5332L26.502 17.6794ZM27.0277 9.98529L27.0206 9.98904L23.5001 11.8669L16.4707 8.11754C16.3548 8.05574 16.2279 8.01736 16.0972 8.00461C15.9665 7.99185 15.8346 8.00497 15.7089 8.0432C15.4552 8.12042 15.2425 8.29527 15.1177 8.52929C14.9929 8.76331 14.9661 9.03733 15.0434 9.29107C15.1206 9.5448 15.2954 9.75747 15.5295 9.88229L21.3751 13L16.0001 15.8668L4.97958 9.98917L4.97245 9.98542L3.12508 9.00004L16.0001 2.13329L28.8751 9.00004L27.0277 9.98529Z" fill="white"/>
</svg>
