<svg width="40" height="34" viewBox="0 0 40 34" fill="none" xmlns="http://www.w3.org/2000/svg">
<path d="M26.6155 33.8459L35.8465 33.8459C37.1287 33.8459 38.2183 33.3972 39.116 32.4999C40.0131 31.6025 40.4619 30.5128 40.4619 29.2305L40.4619 19.9999C40.4619 18.7177 40.0134 17.6282 39.116 16.7309C38.2184 15.8337 37.1284 15.3848 35.8465 15.3848L30.4619 15.3848C29.8211 15.3848 29.2761 15.1603 28.8273 14.7117C28.3785 14.2634 28.1542 13.7182 28.1542 13.0769L28.1542 12.3081C28.1542 10.6093 28.7553 9.15943 29.9571 7.95728C31.159 6.75572 32.6092 6.15473 34.3082 6.15473L35.8465 6.15473C36.2634 6.15473 36.6238 6.00208 36.9285 5.69779C37.2328 5.39351 37.3851 5.03282 37.3851 4.61613L37.3851 1.53885C37.3851 1.12284 37.2328 0.761467 36.9285 0.4571C36.6236 0.152901 36.2635 0.000168214 35.8465 0.00016825L34.3081 0.000168385C32.6413 0.00016853 31.0507 0.325166 29.5362 0.973981C28.0218 1.62288 26.7118 2.50054 25.6059 3.60637C24.5004 4.71228 23.6229 6.02204 22.9739 7.53655C22.325 9.05099 22.0004 10.6414 22.0004 12.308L22.0004 29.2308C22.0004 30.5131 22.4492 31.6027 23.3465 32.5C24.2437 33.3973 25.3337 33.8459 26.6155 33.8459Z" fill="#BDBDBD"/>
<path d="M1.34625 32.5771C2.24344 33.4743 3.33319 33.9231 4.61541 33.9231L13.846 33.9231C15.1282 33.9231 16.2179 33.4743 17.1151 32.5771C18.0123 31.6795 18.4609 30.5899 18.4609 29.3076L18.4609 20.0771C18.4609 18.7948 18.0123 17.7054 17.1151 16.8081C16.2179 15.9109 15.1281 15.462 13.846 15.462L8.4614 15.462C7.82058 15.462 7.27516 15.2375 6.82648 14.7889C6.37822 14.3403 6.15342 13.7954 6.15342 13.1541L6.15342 12.3853C6.15342 10.6864 6.75449 9.23659 7.95656 8.03444C9.15837 6.83288 10.6082 6.23188 12.3074 6.23188L13.846 6.23188C14.2626 6.23188 14.6234 6.07924 14.9276 5.77495C15.2322 5.47067 15.3847 5.10997 15.3847 4.69329L15.3847 1.61601C15.3847 1.2 15.2322 0.838627 14.9276 0.53426C14.6234 0.230061 14.2627 0.0773281 13.846 0.0773281L12.3074 0.0773283C10.6408 0.0773284 9.05035 0.402325 7.53566 1.05114C6.02148 1.70004 4.71165 2.5777 3.60573 3.68353C2.4999 4.78944 1.6219 6.09953 0.973343 7.61371C0.324529 9.12781 -0.000213744 10.7186 -0.000213599 12.3852L-0.000212119 29.308C3.9763e-05 30.5903 0.448385 31.6799 1.34625 32.5771Z" fill="#BDBDBD"/>
</svg>
